<svg xmlns="http://www.w3.org/2000/svg" viewBox="0 0 442.22 141.98">
  <g id="Layer_2" data-name="Layer 2">
    <path d="M33.8,43.55c1.16-.18,2.09-2.56.93-4.06s-6.32-.18-6.32-1.05.06-10.73,0-12.93-4.82-2.38-4.82,0c0,1.62-.46,10.9-.46,12.64,0,.87-1.32.76-2.64.7s-2.64-.09-2.64-.58c0-1-.17-8.93,0-11.78s-4.47-2.72-5.45-1.1-.64,12-1.74,13.17S.22,36.59.22,40.94a4.12,4.12,0,0,0,3.3,2.9,41,41,0,0,0,6.21.06c1.62,0,1.27,5.1-.06,5.1-.75,0-5.39,0-7.89-.12s-2.38,5,.41,5c1.29,0,8.58-.11,8.58,1.16s-.11,10-.11,13.46,6.15,3.25,6.32.81,0-12.87.46-13.69,4.38-1,5.17-.23-.18,13.86.23,15.14,3.65,1.1,4.47.06S26.9,55.9,27.54,55s4.75.29,6.26-.58,1.39-4.29.18-4.93-6-.11-6.44-.63-.06-4.41.17-4.76S32.64,43.72,33.8,43.55ZM22.08,48.13c0,.93-.87,1.22-2.66,1.22s-2.67-.93-2.67-3.13a2.18,2.18,0,0,1,2.32-2.32c1.1,0,3,0,3,1.5Zm91.57,51.22c-4.72-9.84,2-50.16,2-58.65S106.8,25,98.22,28.16,83.26,48,82.78,47.26c-1.54-1.92,1.16-27.5-1.93-31s-11.77-6-23.44,13c-.87-8.58.48-22,1.16-25.27s-8.1-9.74-11.38,6.75S45.45,70.31,46,79.09,48.58,96,53.26,94.33A16.62,16.62,0,0,0,60.5,89.7c.87-1-3.76-20.07-3.47-39.16S73,19.09,74.58,22.27c1.84,3.67-.67,26.15-.87,40.42S79.6,77,81.91,77s.58-2,.49-4.15c.86-17.17,12-37.81,16.88-35.88s-2,50.06,4.15,61.74,18.61,16.68,19.48,13.58S118.38,109.19,113.65,99.35ZM244.5,78.61c-.49-9.59-.2-22.6.56-26.25,1-4.92-1-14.06-4.12-8.46s-3.1,18.84-6.19,23.7c-3,5.93-9.92,16.83-14.4,13.42-5.21-4-2.9-28.46-1.93-34s-2.61-4-4.83-1.74-3.08,7.53-7.23,15.44c-6,11.4-15.24,20.45-19.39,19.48s-2.51-6.36-.68-11.09,9.76-18.37,6.47-18.62c-5.12-.38-4.35,3.67-15,1.26,3.57-6.08,3.28-18.24-2.32-20s-12.15,2.12-11.67,13.41,9,10.63,9,10.63A18.45,18.45,0,0,1,163,66.65c-7.82,3.66-8.2-10.61-8-15.44s-2.51-3.08-6.37,3.57S134.2,69.45,131.11,66s-.58-12.54,4.63-18.2c3.38-3.54,8.88-5.24,12.83-2.65s7,.3.87-5.1-18.81-3.28-23.25,3.67-5.79,19.39,2.17,26.05S148.48,63,148.48,63a10.84,10.84,0,0,0,5.4,11.39c7,4.14,16.88-4.92,21.51-17.79,0,0,1.16,1,10.52,0-14.28,14.79-13.22,27.46-8.11,32,4.75,4.17,17,4.53,29.52-18.62-.29,2.8.68,15.14,7.53,18.62,5.91,3,12.26-1,19.9-11.89,0,0,1.33-3.17,2.8-4.35s.58.81.43,9.3c-23.85,12.51-49.65,51.1-25.1,59.42,19.38,6.57,38.66-22,32.45-54.15-.16-.82-.3-1.82-.42-2.95,10.54-2.74,14.75-6.13,13.06-7.72S251,75.8,244.5,78.61Zm-71.91-28.9c-5.67-.91-4.82-11.13-.86-11.62S175.58,43.3,172.59,49.71Zm58.23,69.41c-5.8,6.44-17.54,11.77-20.21,3.9s16.73-32.84,27.67-36.71C238.15,95.22,238.77,110.29,230.82,119.12ZM289.73,11c-22.54,16.11.33,42.33,9.58,51.46s15.45,17.45,7.15,23c-7.15,4.77-10.85-5.2-9.23-7.63s4.5-3.58,2.77-5.54-6.47.46-7.86,5.08-.11,11.9,8.32,15.71,23.68-4.62,23.45-14.67-5-15.82-19-32-10.64-29.57.69-31.07,18.34,5.43,18.26,14c-.11,12.36-10.86,9.47-8.43,14.9,3.81,5.43,16.17-2,15.71-16.52S309.9-3.44,289.73,11ZM437.27,54.79c-2.92,4.22-8.43,16.14-12.9,19.06s-8.19,2.27-8.68-6.24,2.84-26.69-8.92-25.56-14.84,8.68-14.84,8.68-.08-7.3.56-10.3,2.19-6.16-1.7-5.68-6.41,5.68-8.35,23c-8.36,15.58-12.5,15.49-16.31,8.92s-.32-22-2.19-25.79c-1.55-3.18-4.12.35-5,7a18.09,18.09,0,0,1-5.15,10.4c-5,5-9.37,5.32-10.23-3-1.14-11,3.73-18.09-2.92-19.31-7.71-1-11,33.31,4.54,34.64,7.63.65,12.25-5.44,14.68-10,.33,15.9,6.66,17.68,10.23,17.68s9.16-2.59,11.76-11.76C382.44,84,384.46,81.48,386,81.8s3.66-1.78,6.33-15.9S404,48.71,406.12,51.38s-2.11,24,4.79,30.45,14.52,1.59,21.82-9.36,6.73-11.92,8.84-15.33S440.19,50.57,437.27,54.79Z" style="fill: #fc310e"/>
  </g>
</svg>
