<svg xmlns="http://www.w3.org/2000/svg" viewBox="0 0 622.99 112.41">
  <g id="Layer_2" data-name="Layer 2">
    <path d="M306.41,54c-2.68,3.91-6.3,9-8.38,9.87-4.49,2-9.09-.36-9.27-9.86-.15-7.44-.67-7.51-2.87-5.6S274.7,64.58,269,64.06s-5.82-9.05.07-18,15.53-1.1,17.45-2-4-13.62-18.7-8.17c-13.87,5.13-11.78,24-9.35,27-3.76,7.14-8.25,16.56-13.33,16.56s-6.84-8.32-5.3-21.86,2.29-14.8.22-15.68-4,.59-5.66,7-11.19,30.41-19.15,30.41-5.15-19.95-3.9-26.21,1.33-11.41-.44-11.41-5,.88-8.17,13.32-12.22,25-17.6,24-5.08-21.54-3.24-30.35-2.28-8.59-4.12-5.28A32.27,32.27,0,0,0,174.2,55.3c-4.34,4.79-8.83,10.09-12.81,10.09s-6.25-8.61-5.66-12,.66-5.52.07-6.26-3,0-6.41,5.82-12.55,14.46-16.71,10.3,4.94-25.62,14.87-21.79c2.29,1.25,4.35,3.17,6.11,2.73,1.11-.52.45-3.68-4-7.66s-17.3-3.09-22,4.34-4.34,18-1.84,22.53,11.19,7,15.39,4.05,7.95-6.26,7.95-6.26,2.28,11.93,9.2,12,8.91-4.12,13.55-9c.44,21.87,7.58,23.19,12.74,22.82s10.45-4.56,16.56-16C203.43,84.6,210.28,88.87,216,87s15.24-16.27,15.24-16.27S231,88,241,87.39s13.91-7.06,20.46-20.09c5.45,3.54,12.45,2.73,20.32-6,2.73,10.38,7.14,12.59,9.87,12.59s13.89-6.11,18.11-19.8C310.58,51.4,308.93,50.3,306.41,54ZM99.33,8c-1.08,1.93-.9,5.44-1.43,9.16a92.71,92.71,0,0,1-3.06,12.59c-3.42,11.6-14.91,41-15.68,41-.38,0-2.29-15.35-3.42-32.35C74.59,21.06,74.2,2,73,.42c-2.43-3.2-21,11.92-28.79,45.75s-3,56.4,4.05,49.77c3.88-3.64,5.3-4.42,5.19-13.14s2.65-50.25,15.79-66.37c0,13.36,4.53,63.72,6,69.13s4.86,3.76,6.51.22,13.92-32.69,21.87-58.42c10.27,31.7,2.09,60.85,4.41,63.28s11.6.22,12.7-5.08,7.24-43.22-14.08-75.79C104.55,6.63,100.5,6,99.33,8ZM622.58,51.85c-1.25-1.69-5,5.25-10.6,9.72-7.61,6.06-17.63,9.48-20.17-1.62,15.31-3.39,18.15-18.16,15.66-24.53-2.77-7.07-24.36-4.65-25.68,26.59C573,83.64,566,80.28,564,77c-4.86-7.81,3.24-35.49-1.33-35.49-3.86,0-5.44,6.23-7.95,13.25-3.9,10.93-8.68,24.45-17.37,24.45-9.94,0,.73-37-4.42-38.14s-9,26.36-17.67,26.36c-4.24,0-6-7.07-6.18-14.29-.22-7.57,1.1-15.31-2.21-15.31s-3.44,5.19-5.15,10.45-5,10.9-9.58,10.9c-9,0-1.47-24.59-3.09-26.65s-11.48,1.51-11.19,25.35c-11.19,22.21-16.18,24.37-19.29,19.71-5.89-8.84,1.33-35.93-2.5-35.93s-5.85,8.78-9.86,17.84c-4.62,10.43-12,22.76-16.49,19.41-6.48-4.86-1.62-17.77-4.57-19.71s-7.36,6-19.29,5.13c3.83-20.31.59-28.27-4.12-31.5s-18.4-4-16.34,12.07C375.51,52.59,375.81,62,375.81,62c-13.4,19.43-26.31,17.62-30.34,1.18-8.68-35.49,15.13-55,20.18-49.48,5.82,6.37-3.1,13.4-1,15,5.44,2.95,12.51-18.4,1.47-24-13.13-6.65-38,18-37.7,48s23.86,48.44,47,16.93c5.89,9,16.64,16.64,27.83-.58a25,25,0,0,0,14.43-2.8c-1.47,14.28,4.71,20.46,10.6,20.46s13.25-7.06,18.11-17.08c1.62,9.87,4,17.75,11.34,17.75S469.89,80.56,478,68.05c-.15,8-.15,9.57,2.06,10.89s6.19-2.5,6-12.37c9,1,13.69-3.83,16.78-9.42.3,20,13.55,22.38,20.62,10.6,1.32,18.55,9,18.55,10.89,18.55s9.57,1.48,18.85-16.78c0,9.72,4.71,13.4,4.71,13.4-17.08,12.22-13.1,22.38-10.6,25.91s13.55,6.77,20.76-2.36,1-20.46,1-20.46c9.13-4,13.69-16.35,13.69-16.35s8.1,9.43,18.7,5.75S625.52,55.82,622.58,51.85ZM397.2,67.27c-8.73,10.27-14.36-1.88-11.6-10a86.26,86.26,0,0,1,4.53-11.49c3.65-8.5,6.3-10,9.72-6.84S405.92,57,397.2,67.27Zm161.37,36.92c-4.19-.74-6-8,4.27-15.54C569,97.19,562.77,104.92,558.57,104.19Zm43.59-66.35c6.11,2.76-.5,18.38-11.1,17.22C589.84,43.41,600,36.85,602.16,37.84Zm-570,3.64c1.11-.16,2-2.43.89-3.86s-6-.17-6-1,.05-10.21,0-12.31-4.58-2.26-4.58,0c0,1.55-.45,10.38-.45,12,0,.82-1.25.72-2.51.66S17,36.93,17,36.46c0-.94-.17-8.51,0-11.21s-4.25-2.6-5.19-1.05-.61,11.37-1.66,12.53S.2,34.86.2,39a4,4,0,0,0,3.15,2.76,38,38,0,0,0,5.91.05c1.55,0,1.21,4.86-.06,4.86-.71,0-5.13,0-7.5-.11s-2.27,4.75.38,4.75c1.24,0,8.17-.11,8.17,1.1s-.11,9.56-.11,12.81,5.86,3.1,6,.78,0-12.26.44-13,4.17-1,4.92-.23-.17,13.2.22,14.42,3.48,1,4.25,0-.39-14,.22-14.85,4.53.27,6-.55,1.33-4.09.17-4.7-5.69-.11-6.13-.6-.05-4.2.17-4.53S31.07,41.65,32.17,41.48ZM21,45.84c0,.89-.83,1.16-2.54,1.16s-2.54-.88-2.54-3a2.08,2.08,0,0,1,2.21-2.21c1.05,0,2.87,0,2.87,1.44Z" style="fill: #fc310e"/>
  </g>
</svg>
