<svg xmlns="http://www.w3.org/2000/svg" viewBox="0 0 530.85 113.16">
  <g id="Layer_2" data-name="Layer 2">
    <path d="M33.8,43.71c1.16-.17,2.09-2.55.93-4.06s-6.32-.17-6.32-1,.06-10.73,0-12.94-4.82-2.38-4.82,0c0,1.63-.46,10.91-.46,12.65,0,.87-1.32.76-2.64.69s-2.64-.08-2.64-.58c0-1-.17-8.93,0-11.77s-4.47-2.73-5.45-1.1-.64,12-1.74,13.16S.22,36.75.22,41.1A4.09,4.09,0,0,0,3.52,44a39.66,39.66,0,0,0,6.21.06c1.62,0,1.27,5.11-.06,5.11-.75,0-5.39,0-7.89-.12s-2.38,5,.41,5c1.29,0,8.58-.12,8.58,1.16s-.11,10-.11,13.46,6.15,3.25,6.32.81,0-12.88.46-13.69,4.38-1,5.17-.23-.18,13.86.23,15.14,3.65,1.1,4.47.06-.41-14.68.23-15.61,4.75.29,6.26-.58,1.39-4.29.18-4.93-6-.12-6.44-.64-.06-4.41.17-4.75S32.64,43.89,33.8,43.71ZM22.08,48.3c0,.92-.87,1.21-2.66,1.21s-2.67-.92-2.67-3.13a2.18,2.18,0,0,1,2.32-2.32c1.1,0,3,0,3,1.51Zm90.5,51.05c-4.72-9.84,2-50.16,2-58.65S105.74,25,97.15,28.16,82.2,48,81.71,47.26c-1.54-1.92,1.16-27.5-1.92-31s-11.77-6-23.45,13c-.86-8.58.49-22,1.16-25.27S49.4-5.7,46.12,10.79,44.38,70.31,45,79.09,47.51,96,52.2,94.33a16.56,16.56,0,0,0,7.23-4.63c.87-1-3.76-20.07-3.47-39.16s16-31.45,17.55-28.27c1.84,3.67-.67,26.15-.86,40.42S78.53,77,80.85,77s.58-2,.48-4.15C82.2,55.65,93.39,35,98.21,36.94s-2,50.06,4.15,61.74,18.62,16.68,19.49,13.58S117.31,109.19,112.58,99.35ZM275.71,52.76c-1.25-.1-7,7.62-12.44,12.83s-17.46,5.5-18.33-3.38c4.15.19,17.17-4.53,16.88-18.81s-11.09-10.13-16.3-6.08S234.23,49.67,234.81,65.2C233,69.64,224.49,85,219.28,81s-2.9-28.46-1.93-34-2.61-4-4.82-1.74-3.09,7.53-7.24,15.44c-6,11.4-15.24,20.45-19.39,19.48s-2.51-6.36-.67-11.09,9.75-18.37,6.46-18.62c-5.11-.38-4.34,3.67-15.05,1.26,3.57-6.08,3.28-18.24-2.32-20s-12.15,2.12-11.67,13.41,9,10.63,9,10.63a18.45,18.45,0,0,1-9.74,10.88c-7.81,3.66-8.2-10.61-8-15.44s-2.51-3.08-6.36,3.57S133.13,69.45,130.05,66s-.58-12.54,4.63-18.2c3.37-3.54,8.87-5.24,12.83-2.65s6.94.3.86-5.1-18.81-3.28-23.24,3.67-5.79,19.39,2.16,26.05S147.41,63,147.41,63a10.84,10.84,0,0,0,5.4,11.39c7,4.14,16.88-4.92,21.51-17.79,0,0,1.16,1,10.52,0-14.28,14.79-13.22,27.46-8.1,32,4.74,4.17,17,4.53,29.52-18.62-.29,2.8.67,15.14,7.52,18.62S228.06,86.13,237.41,71c7.91,15.43,26.44,3.28,33.19-4.44S277,52.85,275.71,52.76Zm-104.18-3c-5.68-.91-4.83-11.13-.87-11.62S174.52,43.3,171.53,49.71ZM254,38.87c3.66-.87,4.63,4.91,3.28,9.16s-4.63,9.16-13,8.94C243.78,45.35,250.34,39.73,254,38.87Zm-39.27-.81c3.28,1.13,9.17-.35,8.78-5.47s-5.21-7.52-7-7.71-1.35,3.37-2.89,4.24C210.79,30.86,211.46,36.94,214.74,38.06Zm4.44-6.73c1.26,1.82-1.93,4.45-3,3.1C214.45,33.08,217.93,29.51,219.18,31.33Zm249.44,6.73c3.28,1.13,9.17-.35,8.78-5.47s-5.21-7.52-7-7.71-1.35,3.37-2.9,4.24C464.67,30.86,465.34,36.94,468.62,38.06Zm4.44-6.73c1.25,1.82-1.93,4.45-3,3.1C468.33,33.08,471.81,29.51,473.06,31.33ZM335.23,44.73c3.82,5.43,16.18-2,15.71-16.52S329.66-2.9,309.48,11.52c-22.54,16.11.34,42.33,9.58,51.46s15.45,17.45,7.15,23c-7.15,4.77-10.85-5.2-9.23-7.63s4.51-3.58,2.77-5.54-6.47.46-7.85,5.08-.12,11.9,8.32,15.71S343.9,89,343.67,78.92s-5-15.83-19-32-10.63-29.57.7-31.07,18.34,5.42,18.26,14C343.55,42.18,332.81,39.3,335.23,44.73ZM527.23,57a32,32,0,0,1-8.35,17.19c-5.09,5.53-17.08,10-19.5-16.91C512.85,42.74,516,35.79,516.78,23s-2.17-18.75-6.19-19.58-24.77-.34-20.67,58.83c-7.95,14.9-11.21,19.5-16.57,19.42s-4.19-26.25-3-31.41.16-8.18-2.85-6.09S463.31,57.13,457,62s-16.49,14.06-22.85.08c15.06-2.76,18.41-12.8,16.15-24.77s-27.11,3.18-25.61,27.87c-6.7,15.14-21.84,23.61-25.44-8.2,25-21.51,21.18-53.14,10.29-53.48-6.75-.21-21.92,3.43-20.08,52.64a12.79,12.79,0,0,1-9.88,3.6c2.85-14.56-1.13-22.25-8.62-25.78s-14,5-14.06,13.39c-7,3.56-14.06,18.83-5.52,29.71s21.93,1.17,26.61-13.89a26.69,26.69,0,0,0,12.22-3.26c3.85,20.75,13.22,25.94,22.35,23.18S426.4,69.94,426.4,69.94c5.36,9,19.75,13.89,33-2.68,1.68,15.06,4.1,22.18,12.72,22.18s16.32-13.22,19.75-21c6,12.76,12.77,16.46,20.76,14.44,13.26-3.35,17.88-22.23,18.23-26S527.78,52.73,527.23,57Zm-167.45-2.9c6.61,1.76,3.18,5.19,14.06,7.7C366.73,84,350.16,73,359.78,54.12Zm14.73,4.1c-11.17-3.6-10.79-12.72-9.16-15.9C369.24,35.46,378.19,40.71,374.51,58.22Zm24.05-7.87c-1-21.81,3.41-31.22,6.62-36.6s6.92-4.44,8,3.21S410.14,45.39,398.56,50.35Zm44.9-11.48c3.66-.87,4.63,4.91,3.28,9.16s-4.63,9.16-13,8.94C433.23,45.35,439.79,39.73,443.46,38.87Zm62.2-25.12c3.2-5.38,6.93-4.44,8,3.21s-3,28.43-14.58,33.39C498,28.54,502.45,19.13,505.66,13.75Z" style="fill: #fc310e"/>
  </g>
</svg>
