<svg id="Layer_1" data-name="Layer 1" xmlns="http://www.w3.org/2000/svg" viewBox="0 0 1920 1080"><defs><style>.cls-1{fill:#fff;}</style></defs><g id="Layer_2" data-name="Layer 2"><path class="cls-1" d="M955.86,531.24c-2.19,3.19-5.14,7.34-6.84,8-3.66,1.63-7.41-.3-7.55-8-.13-6.07-.55-6.12-2.34-4.57s-9.13,13.19-13.77,12.76-4.75-7.38.06-14.67,12.66-.9,14.22-1.63-3.26-11.1-15.24-6.66c-11.31,4.18-9.61,19.56-7.63,22-3.06,5.82-6.72,13.5-10.86,13.5s-5.58-6.78-4.32-17.82,1.86-12.07.18-12.78-3.26.48-4.62,5.7-9.12,24.79-15.61,24.79-4.2-16.26-3.18-21.36,1.09-9.31-.36-9.31-4.07.72-6.66,10.86-10,20.38-14.34,19.57-4.15-17.56-2.65-24.74-1.85-7-3.35-4.31a26.16,26.16,0,0,0-2.92,9.71c-3.54,3.91-7.2,8.23-10.45,8.23s-5.09-7-4.61-9.79.54-4.5.06-5.1-2.45,0-5.23,4.75-10.23,11.78-13.62,8.39,4-20.88,12.12-17.76c1.87,1,3.55,2.58,5,2.22.91-.42.37-3-3.26-6.24s-14.1-2.52-17.93,3.54-3.54,14.67-1.5,18.36,9.12,5.71,12.54,3.31,6.48-5.11,6.48-5.11,1.86,9.73,7.5,9.79,7.27-3.36,11.05-7.34c.36,17.83,6.18,18.9,10.39,18.6s8.51-3.72,13.5-13c1.81,11.08,7.39,14.56,12,13s12.43-13.26,12.43-13.26-.2,14.08,7.95,13.58,11.34-5.75,16.68-16.38c4.44,2.89,10.15,2.23,16.57-4.89,2.22,8.46,5.82,10.27,8,10.27s11.33-5,14.77-16.15C959.25,529.12,957.91,528.23,955.86,531.24ZM787,493.74c-.88,1.58-.73,4.44-1.16,7.47a75.59,75.59,0,0,1-2.5,10.26c-2.79,9.46-12.15,33.43-12.78,33.43-.31,0-1.87-12.52-2.79-26.38-.94-14.13-1.25-29.67-2.23-31-2-2.61-17.12,9.72-23.47,37.3s-2.45,46,3.3,40.57c3.16-3,4.32-3.6,4.23-10.71s2.16-41,12.87-54.11c0,10.9,3.7,51.95,4.89,56.36s4,3.06,5.31.18,11.35-26.65,17.83-47.63c8.37,25.85,1.7,49.61,3.59,51.59s9.46.18,10.36-4.14,5.9-35.23-11.48-61.79C791.3,492.63,788,492.11,787,493.74Zm426.56,35.75c-1-1.38-4.08,4.28-8.64,7.92-6.21,4.94-14.37,7.73-16.45-1.32,12.49-2.76,14.8-14.8,12.77-20-2.26-5.76-19.86-3.79-20.93,21.68-7.17,17.63-12.88,14.89-14.51,12.22-4-6.37,2.65-28.93-1.08-28.93-3.15,0-4.44,5.08-6.48,10.8-3.18,8.91-7.08,19.93-14.16,19.93-8.1,0,.59-30.16-3.6-31.09s-7.34,21.49-14.41,21.49c-3.46,0-4.89-5.76-5-11.65-.18-6.17.9-12.48-1.8-12.48s-2.8,4.23-4.2,8.52-4.07,8.88-7.81,8.88c-7.33,0-1.2-20-2.52-21.72s-9.35,1.23-9.12,20.66c-9.12,18.11-13.19,19.87-15.72,16.07-4.8-7.2,1.08-29.29-2-29.29s-4.77,7.16-8,14.55c-3.77,8.5-9.78,18.55-13.44,15.82-5.28-4-1.32-14.49-3.73-16.07s-6,4.89-15.72,4.18c3.12-16.55.48-23-3.36-25.68s-15-3.26-13.32,9.84c-8.06,6.27-7.82,13.94-7.82,13.94-10.92,15.84-21.45,14.37-24.73,1-7.08-28.93,12.33-44.83,16.45-40.33,4.74,5.19-2.53,10.92-.82,12.23,4.44,2.4,10.2-15,1.2-19.57-10.7-5.42-31,14.68-30.73,39.13s19.45,39.49,38.31,13.8c4.8,7.34,13.57,13.57,22.69-.47a20.34,20.34,0,0,0,11.76-2.28c-1.2,11.64,3.84,16.68,8.64,16.68S1066,552.15,1070,544c1.32,8,3.26,14.47,9.24,14.47s9.91-5.56,16.53-15.75c-.13,6.52-.13,7.8,1.68,8.87s5-2,4.89-10.08c7.33.81,11.16-3.12,13.68-7.68.24,16.3,11,18.24,16.81,8.64,1.07,15.12,7.33,15.12,8.87,15.12s7.8,1.21,15.37-13.68c0,7.93,3.84,10.93,3.84,10.93-13.92,10-10.68,18.24-8.64,21.12s11,5.52,16.92-1.92.82-16.68.82-16.68c7.44-3.26,11.16-13.33,11.16-13.33s6.6,7.68,15.24,4.68S1216,532.73,1213.6,529.49Zm-183.73,12.57c-7.12,8.37-11.71-1.53-9.46-8.15a71.2,71.2,0,0,1,3.69-9.37c3-6.93,5.14-8.15,7.93-5.58S1037,533.69,1029.87,542.06Zm131.55,30.1c-3.42-.61-4.89-6.53,3.48-12.67C1169.92,566.45,1164.84,572.75,1161.42,572.16ZM1197,518.07c5,2.25-.41,15-9,14-1-9.5,7.29-14.85,9-14Zm-464.67,3c.91-.14,1.64-2,.73-3.15s-4.89-.14-4.89-.82,0-8.32,0-10-3.73-1.84-3.73,0c0,1.26-.37,8.46-.37,9.78,0,.67-1,.59-2,.54s-2,0-2-.42c0-.76-.14-6.93,0-9.14s-3.47-2.12-4.23-.85-.5,9.27-1.36,10.21-8.11-1.52-8.11,1.85a3.24,3.24,0,0,0,2.57,2.25,29.83,29.83,0,0,0,4.82,0c1.26,0,1,4,0,4-.58,0-4.18,0-6.12-.09s-1.85,3.87.31,3.87c1,0,6.66-.09,6.66.9s-.09,7.79-.09,10.44,4.78,2.53,4.9.63,0-10,.35-10.59,3.4-.82,4-.19-.13,10.76.18,11.75,2.84.82,3.47,0-.32-11.41.18-12.1,3.69.22,4.89-.45,1.08-3.33.14-3.83-4.64-.09-5-.49,0-3.42.14-3.69,3.81-.26,4.7-.39Zm-9.09,3.55c0,.72-.68.94-2.07.94s-2.07-.71-2.07-2.44a1.69,1.69,0,0,1,1.58-1.8h.22c.85,0,2.34,0,2.34,1.17Z"/></g><path class="cls-1" d="M819.76,576.64h2.79v18.92h-2.68v-7.38c.07-2.65.15-4.69.22-6.11L820,582q-.54,1.5-1.84,5l-1.65,4.3h-2.7l-1.65-4.3q-1.3-3.47-1.84-5l-.11.05q.16,3.95.22,6.11v7.38h-2.68V576.64h2.79l3.19,7.67c.41,1,.87,2.28,1.38,3.76h.1c.51-1.48,1-2.73,1.38-3.76Z"/><path class="cls-1" d="M826.33,595.56V576.64H829v8.27a47.57,47.57,0,0,1-.3,5.46l.08,0c.63-1.65,1.08-2.77,1.35-3.35l4.6-10.43h2.78v18.92h-2.67v-8.25c0-1.82.08-3.66.24-5.54l-.08,0c-.54,1.49-1,2.66-1.35,3.49l-4.57,10.35Z"/><path class="cls-1" d="M846.31,576.64a5.62,5.62,0,0,1,4.3,1.6,7.56,7.56,0,0,1,0,9.07,5.62,5.62,0,0,1-4.3,1.6H844v6.65h-2.73V576.64Zm0,9.67q3.06,0,3.06-3.56t-3.06-3.52H844v7.08Z"/><path class="cls-1" d="M868.75,576.64h2.73v18.92h-2.73v-8.3h-5.36v8.3h-2.73V576.64h2.73v8.05h5.36Z"/><path class="cls-1" d="M878,593h6.81v2.57h-9.54V576.64h9.27v2.56H878v5.49h6v2.52h-6Z"/><path class="cls-1" d="M897.21,594.22a6.18,6.18,0,0,1-8.49,0,6.68,6.68,0,0,1-1.54-4.66v-6.92a6.71,6.71,0,0,1,1.54-4.67,6.18,6.18,0,0,1,8.49,0,6.66,6.66,0,0,1,1.54,4.67v6.92A6.63,6.63,0,0,1,897.21,594.22Zm-4.24-1a2.69,2.69,0,0,0,2.22-.94,4.31,4.31,0,0,0,.75-2.73v-6.92a4.31,4.31,0,0,0-.75-2.73A2.69,2.69,0,0,0,893,579q-3,0-3,3.68v6.92Q890,593.24,893,593.23Z"/><path class="cls-1" d="M907.19,584.1a5.58,5.58,0,0,1,4.18,1.54,5.71,5.71,0,0,1,1.5,4.16,5.83,5.83,0,0,1-1.48,4.29,5.68,5.68,0,0,1-4.2,1.47H902V576.64h9.84v2.56h-7.11v4.9ZM907,593a3.06,3.06,0,0,0,2.24-.79,3.18,3.18,0,0,0,.81-2.37,3.14,3.14,0,0,0-.82-2.35,3.06,3.06,0,0,0-2.23-.81h-2.3V593Z"/><path class="cls-1" d="M915.57,595.56V576.64h2.78v7.57h1.92a6,6,0,0,1,4.27,9.9,5.78,5.78,0,0,1-4.27,1.45Zm2.78-2.54h1.79c2,0,3-1,3-3.14a3.14,3.14,0,0,0-.78-2.3,3,3,0,0,0-2.24-.78h-1.79Zm9.9,2.54V576.64H931v18.92Z"/><path class="cls-1" d="M942,576.64h2.73v19H942v-7a7.41,7.41,0,0,1-2.57.43,5.3,5.3,0,0,1-4.08-1.58,6.22,6.22,0,0,1-1.49-4.44v-6.38h2.73v6.46q0,3.38,3.14,3.38a6.15,6.15,0,0,0,2.27-.41Z"/><path class="cls-1" d="M956.58,576.64h2.73v18.92h-2.73v-8.3h-5.35v8.3h-2.74V576.64h2.74v8.05h5.35Z"/><path class="cls-1" d="M972.58,594.22a6.18,6.18,0,0,1-8.49,0,6.68,6.68,0,0,1-1.54-4.66v-6.92a6.71,6.71,0,0,1,1.54-4.67,6.18,6.18,0,0,1,8.49,0,6.66,6.66,0,0,1,1.54,4.67v6.92A6.63,6.63,0,0,1,972.58,594.22Zm-4.24-1a2.65,2.65,0,0,0,2.21-.94,4.25,4.25,0,0,0,.76-2.73v-6.92a4.25,4.25,0,0,0-.76-2.73,2.66,2.66,0,0,0-2.21-.95q-3,0-3,3.68v6.92Q965.36,593.24,968.34,593.23Z"/><path class="cls-1" d="M986.42,576.64v2.59H980.1v16.33h-2.73V576.64Z"/><path class="cls-1" d="M998.26,594.22a6.18,6.18,0,0,1-8.49,0,6.68,6.68,0,0,1-1.54-4.66v-6.92a6.71,6.71,0,0,1,1.54-4.67,6.18,6.18,0,0,1,8.49,0,6.66,6.66,0,0,1,1.54,4.67v6.92A6.63,6.63,0,0,1,998.26,594.22Zm-4.24-1a2.69,2.69,0,0,0,2.22-.94,4.31,4.31,0,0,0,.75-2.73v-6.92a4.31,4.31,0,0,0-.75-2.73A2.69,2.69,0,0,0,994,579q-3,0-3,3.68v6.92Q991.05,593.24,994,593.23Z"/><path class="cls-1" d="M1019.43,595.56h-3l-3-7-3,7h-3l4.51-9.81-4.24-9.11h3l2.76,6.4,2.73-6.4h3l-4.24,9.11Z"/><path class="cls-1" d="M1028.68,576.64h2.86l-4.59,15a6.89,6.89,0,0,1-1.88,3.29,5.06,5.06,0,0,1-3.29,1h-.67v-2.46h.75a2.17,2.17,0,0,0,1.65-.6,5.11,5.11,0,0,0,1-2l.22-.7L1020,576.64h2.89l3.09,9.21Z"/><path class="cls-1" d="M1043.06,593h1.67v5.73h-2.67v-3.16h-9v3.16h-2.68V593h1.11c1.29-1.31,2-3.72,2.13-7.22l.33-9.13h9.11Zm-2.71,0V579.2h-3.83l-.27,7.33a14.48,14.48,0,0,1-1.49,6.46Z"/><path class="cls-1" d="M1056.63,594.22a6.18,6.18,0,0,1-8.49,0,6.63,6.63,0,0,1-1.54-4.66v-6.92a6.66,6.66,0,0,1,1.54-4.67,6.18,6.18,0,0,1,8.49,0,6.66,6.66,0,0,1,1.54,4.67v6.92A6.63,6.63,0,0,1,1056.63,594.22Zm-4.25-1a2.66,2.66,0,0,0,2.22-.94,4.25,4.25,0,0,0,.76-2.73v-6.92a4.25,4.25,0,0,0-.76-2.73,2.67,2.67,0,0,0-2.22-.95q-3,0-3,3.68v6.92Q1049.41,593.24,1052.38,593.23Z"/><path class="cls-1" d="M1075,595.56l-4.46-8-.92,1.43v6.6H1067V589l-.92-1.43-4.46,8h-3.08l6-10.33-5.57-8.59h3.13l3.57,5.84,1.3,2.35v-8.19h2.65v8.21l1.38-2.46,3.48-5.75h3.14l-5.57,8.59,6,10.33Z"/><path class="cls-1" d="M1088,576.64h2.73v18.92H1088v-8.3h-5.36v8.3h-2.73V576.64h2.73v8.05H1088Z"/><path class="cls-1" d="M1094.5,595.56V576.64h2.68v8.27a47.57,47.57,0,0,1-.3,5.46l.08,0c.63-1.65,1.08-2.77,1.35-3.35l4.6-10.43h2.78v18.92H1103v-8.25c0-1.82.08-3.66.24-5.54l-.08,0c-.54,1.49-1,2.66-1.35,3.49l-4.57,10.35Z"/><path class="cls-1" d="M1118.05,595.56l-4.62-8.27-1.25,1.86v6.41h-2.7V576.64h2.7v8.21l1.25-2.21,3.78-6h3.19l-5.41,8.24,6.19,10.68Z"/><path class="cls-1" d="M1131,595.56l-.9-3.81h-5l-.86,3.81h-2.87l4.76-18.92h2.95l4.76,18.92Zm-5.3-6.35h3.84l-1.19-5.09c-.27-1.26-.51-2.61-.71-4h-.08c-.23,1.71-.47,3.06-.7,4Z"/></svg>